<svg id="Layer_1" data-name="Layer 1" xmlns="http://www.w3.org/2000/svg" viewBox="0 0 780.94 402.66"><defs><style>.cls-1{fill:#fff;}</style></defs><title>logow</title><path class="cls-1" d="M754.94,97.89l-236.8-.07h-.07l-207.62-.07c-23.86,0-45,16.93-53.24,42.25v.07h87.58c10.22,0,18.54,9.45,18.54,21.13a22.71,22.71,0,0,1-5.45,15,17.55,17.55,0,0,1-12.11,6.09,4.62,4.62,0,0,1-1,.07H245.46l-11.68,42.39H374.94a4.62,4.62,0,0,1,1,.07c9.8.56,17.56,9.72,17.56,21.05a22.88,22.88,0,0,1-5.45,15,18.18,18.18,0,0,1-8.47,5.45,14.49,14.49,0,0,1-4.62.7H222.16l-10.91,39.74H303a16.34,16.34,0,0,1,8,2.09c6.22,3.43,10.49,10.71,10.49,19.1a22.62,22.62,0,0,1-5.39,15,17.44,17.44,0,0,1-11.19,6A17.16,17.16,0,0,1,303,349H199.57l-11.34,41.2h74a15.9,15.9,0,0,1,6,1.19c7.28,2.8,12.45,10.7,12.45,20a22.44,22.44,0,0,1-5.38,14.9,17.58,17.58,0,0,1-11.2,6.09,16.81,16.81,0,0,1-1.88.14H181C183.27,464.8,206.84,474,237.55,474H690.44l115.92,25-61.21-72.4L809.58,180C819.65,138.74,792.51,97.89,754.94,97.89ZM461.34,258.72v7.55H416.43v-7.06c0-12.74,1.68-24.21,5-34.28h46.8Q461.34,237.41,461.34,258.72Zm124.38,65.33q0,41-23.16,64c-15.46,15.32-35.95,23-61.63,23q-35.56,0-57.85-19.66c-1.26-1.05-2.45-2.17-3.64-3.36-10.35-10.35-17.21-23.36-20.56-39.17a115.42,115.42,0,0,1-2.45-24.84V266.34h44.91v57.71c0,9.59,1.05,17.91,3.15,24.84a40.55,40.55,0,0,0,6.78,13.92c6.51,8.53,16.23,12.8,29,12.94h.7c13.09,0,23-4.27,29.8-12.94s10.08-21.55,10.08-38.76V258.72q0-25.4-10.29-38.34c-6.85-8.6-16.78-12.94-29.73-12.94a54.46,54.46,0,0,0-6,.35c-10.15,1.12-18,5.32-23.58,12.52a31.61,31.61,0,0,0-2.86,4.48H421.53a73.81,73.81,0,0,1,34.7-42.53q18.78-10.39,44.56-10.43,38.41,0,61.7,23.23c15.46,15.53,23.23,36.86,23.23,64.15ZM710.1,407.72H663.37l-28.54-100-12-42.11-25.81-90.45h47.43l20.78,90.45L675,307.75l9.31,40.58,1.88,9.72h1l1.88-9.23,40.23-173.63H776.7Z" transform="translate(-30.76 -96.36)"/><path class="cls-1" d="M514.38,140H151.11a21.26,21.26,0,0,1-21.27-21.26h0a21.27,21.27,0,0,1,21.27-21.27H514.38a21.27,21.27,0,0,1,21.27,21.27h0A21.26,21.26,0,0,1,514.38,140Z" transform="translate(-30.76 -96.36)"/><path class="cls-1" d="M456.23,182.26a73.81,73.81,0,0,0-34.7,42.53H110.65a21.27,21.27,0,1,1,0-42.53Z" transform="translate(-30.76 -96.36)"/><path class="cls-1" d="M494.78,207.79a21.3,21.3,0,0,1-20.85,17h-5.59a31.61,31.61,0,0,1,2.86-4.48C476.8,213.11,484.63,208.91,494.78,207.79Z" transform="translate(-30.76 -96.36)"/><rect class="cls-1" width="73.63" height="42.54" rx="21.27" ry="21.27"/><path class="cls-1" d="M527.45,287.54a21.25,21.25,0,0,1-21.27,21.26H461.34V266.34H416.43V308.8H198.94a21.27,21.27,0,1,1,0-42.53H506.18A21.31,21.31,0,0,1,527.45,287.54Z" transform="translate(-30.76 -96.36)"/><path class="cls-1" d="M443.08,391.42H116.46a21.27,21.27,0,1,1,0-42.53H418.88c3.35,15.81,10.21,28.82,20.56,39.17C440.63,389.25,441.82,390.37,443.08,391.42Z" transform="translate(-30.76 -96.36)"/><path class="cls-1" d="M501,370.16a21.19,21.19,0,0,1-.77,5.59c-12.73-.14-22.45-4.41-29-12.94a40.55,40.55,0,0,1-6.78-13.92h15.25A21.25,21.25,0,0,1,501,370.16Z" transform="translate(-30.76 -96.36)"/><path class="cls-1" d="M438.25,474H73.83a20.69,20.69,0,0,1-20.7-20.69h0A20.9,20.9,0,0,1,74,432.45h364a20.89,20.89,0,0,1,20.89,20.9h0A20.69,20.69,0,0,1,438.25,474Z" transform="translate(-30.76 -96.36)"/><rect class="cls-1" x="0.27" y="252.54" width="48.98" height="42.54" rx="21.27" ry="21.27"/><rect class="cls-1" x="85.26" y="169.83" width="48.98" height="42.54" rx="21.27" ry="21.27"/><path class="cls-1" d="M468.27,224.93q-6.93,12.48-6.93,33.79v7.55H416.43v-7.06c0-12.74,1.68-24.21,5-34.28Z" transform="translate(-30.76 -96.36)"/><polygon class="cls-1" points="644.23 211.4 604.07 211.4 592.11 169.29 634.5 169.29 644.23 211.4"/></svg>